<svg width="1999" height="1333" xmlns="http://www.w3.org/2000/svg" xmlns:xlink="http://www.w3.org/1999/xlink" xml:space="preserve" overflow="hidden"><g transform="translate(-1138 -697)"><path d="M1141 993C1141 956.549 1170.55 927 1207 927 1243.45 927 1273 956.549 1273 993 1273 1029.45 1243.45 1059 1207 1059 1170.55 1059 1141 1029.45 1141 993Z" stroke="#F7D115" stroke-width="5.72917" stroke-miterlimit="8" fill="#FBEA8E" fill-rule="evenodd"/><path d="M1184.16 971.584 1195.31 971.584 1198.87 1001.9 1217.09 971.584 1226.94 971.584 1226.59 973.115C1225.8 973.282 1225.23 973.469 1224.89 973.677 1224.55 973.886 1224.23 974.198 1223.95 974.615 1223.67 975.032 1223.39 975.683 1223.11 976.568 1222.83 977.454 1222.47 978.896 1222.03 980.896L1216.69 1005.15C1216.42 1006.38 1216.24 1007.35 1216.16 1008.07 1216.07 1008.79 1216.03 1009.44 1216.03 1010.02 1216.03 1010.96 1216.27 1011.62 1216.73 1012.01 1217.2 1012.39 1217.99 1012.63 1219.09 1012.71L1218.75 1014.24 1206.25 1014.24 1206.59 1012.71C1207.39 1012.58 1207.98 1012.38 1208.37 1012.1 1208.77 1011.82 1209.1 1011.43 1209.37 1010.93 1209.65 1010.43 1209.9 1009.82 1210.12 1009.1 1210.35 1008.38 1210.7 1006.99 1211.16 1004.93L1215.31 986.084C1215.9 983.48 1216.56 980.886 1217.31 978.302L1216.87 978.302C1216.23 979.532 1214.77 982.032 1212.5 985.802L1198.28 1009.27 1194.87 1009.27 1192.28 989.177C1191.91 986.344 1191.49 982.532 1191.03 977.74L1190.41 977.74C1189.7 982.407 1188.91 986.73 1188.03 990.709L1184.84 1005.15C1184.41 1007.13 1184.19 1008.75 1184.19 1010.02 1184.19 1010.96 1184.42 1011.62 1184.89 1012.01 1185.36 1012.39 1186.15 1012.63 1187.25 1012.71L1186.91 1014.24 1175.97 1014.24 1176.31 1012.71C1177.1 1012.58 1177.7 1012.38 1178.09 1012.1 1178.49 1011.82 1178.82 1011.43 1179.09 1010.93 1179.36 1010.43 1179.61 1009.82 1179.84 1009.1 1180.07 1008.38 1180.42 1006.99 1180.87 1004.93L1186.19 980.865C1186.4 979.969 1186.56 979.115 1186.69 978.302 1186.81 977.49 1186.87 976.667 1186.87 975.834 1186.87 974.855 1186.63 974.172 1186.14 973.787 1185.65 973.401 1184.87 973.177 1183.81 973.115Z" fill="#377F7E" fill-rule="evenodd"/><text fill="#000000" fill-opacity="0" font-family="Arial,Arial_MSFontService,sans-serif" font-size="42.6562" x="1175.97" y="1008.91">𝑀</text><path d="M1235.11 1003.89C1235.95 1003.89 1236.64 1004.08 1237.17 1004.45 1237.71 1004.81 1238.15 1005.35 1238.5 1006.05 1238.86 1006.76 1239.15 1007.62 1239.38 1008.66 1239.61 1009.69 1239.85 1010.87 1240.11 1012.2L1240.41 1012.2C1241.33 1010.99 1242.12 1009.95 1242.8 1009.06 1243.47 1008.17 1244.07 1007.42 1244.6 1006.81 1245.13 1006.2 1245.6 1005.7 1246.02 1005.32 1246.44 1004.93 1246.85 1004.64 1247.25 1004.43 1247.65 1004.23 1248.06 1004.09 1248.48 1004.01 1248.9 1003.93 1249.37 1003.89 1249.89 1003.89 1250.65 1003.89 1251.35 1004.03 1251.98 1004.31L1250.83 1008.83 1248.92 1008.83C1248.88 1008.17 1248.63 1007.84 1248.19 1007.84 1248.02 1007.84 1247.84 1007.87 1247.64 1007.93 1247.44 1007.99 1247.2 1008.12 1246.93 1008.3 1246.65 1008.48 1246.33 1008.74 1245.97 1009.07 1245.62 1009.4 1245.19 1009.83 1244.7 1010.35 1244.21 1010.88 1243.65 1011.53 1243.03 1012.29 1242.4 1013.06 1241.68 1013.96 1240.87 1015 1241.28 1017.11 1241.64 1018.8 1241.94 1020.07 1242.23 1021.34 1242.52 1022.31 1242.8 1022.99 1243.07 1023.66 1243.35 1024.1 1243.62 1024.31 1243.9 1024.51 1244.21 1024.62 1244.56 1024.62 1244.82 1024.62 1245.06 1024.59 1245.29 1024.53 1245.51 1024.46 1245.74 1024.33 1245.97 1024.12 1246.21 1023.92 1246.48 1023.62 1246.77 1023.23 1247.06 1022.84 1247.4 1022.32 1247.8 1021.68L1249.52 1022.8C1248.85 1023.81 1248.25 1024.64 1247.73 1025.28 1247.21 1025.93 1246.71 1026.43 1246.22 1026.8 1245.73 1027.16 1245.22 1027.41 1244.7 1027.54 1244.18 1027.67 1243.58 1027.74 1242.91 1027.74 1242.33 1027.74 1241.81 1027.66 1241.35 1027.5 1240.89 1027.34 1240.49 1027.04 1240.16 1026.61 1239.93 1026.35 1239.71 1026.01 1239.51 1025.57 1239.32 1025.13 1239.13 1024.66 1238.96 1024.16 1238.8 1023.65 1238.64 1023.13 1238.5 1022.59 1238.37 1022.04 1238.25 1021.53 1238.16 1021.06 1238.07 1020.59 1238 1020.16 1237.94 1019.79 1237.89 1019.41 1237.85 1019.13 1237.84 1018.95L1237.59 1018.95C1236.67 1020.17 1235.87 1021.24 1235.19 1022.15 1234.51 1023.06 1233.89 1023.84 1233.34 1024.49 1232.79 1025.14 1232.29 1025.68 1231.85 1026.1 1231.41 1026.52 1230.97 1026.85 1230.54 1027.1 1230.11 1027.34 1229.67 1027.51 1229.22 1027.6 1228.77 1027.69 1228.27 1027.74 1227.72 1027.74 1226.92 1027.74 1226.24 1027.6 1225.68 1027.33L1226.73 1022.85 1228.68 1022.85C1228.73 1023.52 1228.98 1023.86 1229.44 1023.86 1229.61 1023.84 1229.77 1023.81 1229.93 1023.77 1230.09 1023.72 1230.28 1023.63 1230.5 1023.48 1230.71 1023.34 1230.98 1023.11 1231.31 1022.79 1231.64 1022.48 1232.06 1022.04 1232.56 1021.48 1233.07 1020.93 1233.69 1020.23 1234.42 1019.39 1235.15 1018.54 1236.03 1017.5 1237.06 1016.26 1236.78 1014.98 1236.54 1013.86 1236.34 1012.91 1236.13 1011.96 1235.94 1011.15 1235.76 1010.47 1235.59 1009.79 1235.41 1009.23 1235.25 1008.81 1235.08 1008.38 1234.91 1008.04 1234.73 1007.78 1234.55 1007.53 1234.36 1007.35 1234.16 1007.24 1233.95 1007.14 1233.71 1007.08 1233.43 1007.06 1233.17 1007.06 1232.93 1007.1 1232.71 1007.19 1232.49 1007.27 1232.26 1007.42 1232.02 1007.64 1231.78 1007.85 1231.52 1008.15 1231.24 1008.53 1230.96 1008.91 1230.63 1009.41 1230.27 1010.02L1228.5 1008.87C1229.13 1007.94 1229.69 1007.15 1230.2 1006.51 1230.7 1005.87 1231.2 1005.36 1231.69 1004.97 1232.18 1004.59 1232.69 1004.32 1233.24 1004.15 1233.78 1003.98 1234.4 1003.89 1235.11 1003.89Z" fill="#377F7E" fill-rule="evenodd"/><text fill="#000000" fill-opacity="0" font-family="Arial,Arial_MSFontService,sans-serif" font-size="23.8442" x="1225.68" y="1024.76">𝑥</text><path d="M1141 844C1141 807.549 1170.55 778 1207 778 1243.45 778 1273 807.549 1273 844 1273 880.451 1243.45 910 1207 910 1170.55 910 1141 880.451 1141 844Z" stroke="#F7D115" stroke-width="5.72917" stroke-miterlimit="8" fill="#FBEA8E" fill-rule="evenodd"/><path d="M1209.71 824.729C1208.42 824.729 1207.06 824.761 1205.65 824.823L1201.4 843.761 1204.65 843.761C1207.17 843.761 1209.21 843.5 1210.76 842.979 1212.31 842.459 1213.58 841.651 1214.57 840.558 1215.56 839.464 1216.32 838.167 1216.87 836.667 1217.41 835.167 1217.68 833.521 1217.68 831.729 1217.68 829.313 1217.06 827.542 1215.84 826.417 1214.61 825.292 1212.56 824.729 1209.71 824.729ZM1196.62 821.979 1210.4 821.979C1212.88 821.979 1214.91 822.172 1216.51 822.558 1218.1 822.943 1219.41 823.537 1220.44 824.339 1221.48 825.141 1222.25 826.156 1222.76 827.386 1223.27 828.615 1223.52 830.042 1223.52 831.667 1223.52 834.792 1222.78 837.5 1221.3 839.792 1219.82 842.084 1217.82 843.771 1215.29 844.854 1212.76 845.938 1209.72 846.479 1206.18 846.479 1204.05 846.479 1202.28 846.438 1200.87 846.354L1198.87 855.542C1198.68 856.396 1198.55 857.052 1198.48 857.511 1198.4 857.969 1198.34 858.464 1198.29 858.995 1198.24 859.526 1198.21 860 1198.21 860.417 1198.21 861.063 1198.31 861.568 1198.52 861.933 1198.73 862.297 1199.04 862.563 1199.46 862.729 1199.88 862.896 1200.6 863.021 1201.62 863.104L1201.27 864.636 1188.43 864.636 1188.77 863.104C1189.56 862.979 1190.16 862.776 1190.55 862.495 1190.95 862.214 1191.28 861.823 1191.55 861.323 1191.82 860.823 1192.07 860.214 1192.3 859.495 1192.53 858.776 1192.88 857.386 1193.34 855.323L1198.65 831.261C1199.11 829.177 1199.34 827.531 1199.34 826.323 1199.34 825.302 1199.1 824.594 1198.62 824.198 1198.14 823.802 1197.36 823.573 1196.27 823.511Z" fill="#377F7E" fill-rule="evenodd"/><text fill="#000000" fill-opacity="0" font-family="Arial,Arial_MSFontService,sans-serif" font-size="42.6562" x="1188.43" y="859.304">𝑃</text><path d="M1141 1292C1141 1255.55 1170.55 1226 1207 1226 1243.45 1226 1273 1255.55 1273 1292 1273 1328.45 1243.45 1358 1207 1358 1170.55 1358 1141 1328.45 1141 1292Z" stroke="#F7D115" stroke-width="5.72917" stroke-miterlimit="8" fill="#FBEA8E" fill-rule="evenodd"/><path d="M1184.16 1270.79 1195.31 1270.79 1198.87 1301.1 1217.09 1270.79 1226.94 1270.79 1226.59 1272.32C1225.8 1272.49 1225.23 1272.68 1224.89 1272.89 1224.55 1273.09 1224.23 1273.41 1223.95 1273.82 1223.67 1274.24 1223.39 1274.89 1223.11 1275.78 1222.83 1276.66 1222.47 1278.1 1222.03 1280.1L1216.69 1304.35C1216.42 1305.58 1216.24 1306.56 1216.16 1307.28 1216.07 1308 1216.03 1308.65 1216.03 1309.23 1216.03 1310.17 1216.27 1310.83 1216.73 1311.21 1217.2 1311.6 1217.99 1311.83 1219.09 1311.92L1218.75 1313.45 1206.25 1313.45 1206.59 1311.92C1207.39 1311.79 1207.98 1311.59 1208.37 1311.31 1208.77 1311.03 1209.1 1310.64 1209.37 1310.14 1209.65 1309.64 1209.9 1309.03 1210.12 1308.31 1210.35 1307.59 1210.7 1306.2 1211.16 1304.14L1215.31 1285.29C1215.9 1282.69 1216.56 1280.09 1217.31 1277.51L1216.87 1277.51C1216.23 1278.74 1214.77 1281.24 1212.5 1285.01L1198.28 1308.48 1194.87 1308.48 1192.28 1288.39C1191.91 1285.55 1191.49 1281.74 1191.03 1276.95L1190.41 1276.95C1189.7 1281.62 1188.91 1285.94 1188.03 1289.92L1184.84 1304.35C1184.41 1306.33 1184.19 1307.96 1184.19 1309.23 1184.19 1310.17 1184.42 1310.83 1184.89 1311.21 1185.36 1311.6 1186.15 1311.83 1187.25 1311.92L1186.91 1313.45 1175.97 1313.45 1176.31 1311.92C1177.1 1311.79 1177.7 1311.59 1178.09 1311.31 1178.49 1311.03 1178.82 1310.64 1179.09 1310.14 1179.36 1309.64 1179.61 1309.03 1179.84 1308.31 1180.07 1307.59 1180.42 1306.2 1180.87 1304.14L1186.19 1280.07C1186.4 1279.18 1186.56 1278.32 1186.69 1277.51 1186.81 1276.7 1186.87 1275.88 1186.87 1275.04 1186.87 1274.06 1186.63 1273.38 1186.14 1273 1185.65 1272.61 1184.87 1272.39 1183.81 1272.32Z" fill="#377F7E" fill-rule="evenodd"/><text fill="#000000" fill-opacity="0" font-family="Arial,Arial_MSFontService,sans-serif" font-size="42.6562" x="1175.97" y="1308.12">𝑀</text><path d="M1230.66 1303.58 1248.51 1303.58 1249.06 1304.96C1248.05 1306.08 1247.09 1307.14 1246.18 1308.15 1245.27 1309.16 1244.37 1310.16 1243.47 1311.14 1242.58 1312.11 1241.68 1313.09 1240.79 1314.06 1239.89 1315.03 1238.96 1316.04 1238 1317.09 1237.04 1318.14 1236.03 1319.24 1234.97 1320.4 1233.91 1321.55 1232.78 1322.79 1231.57 1324.12 1231.64 1324.19 1231.68 1324.22 1231.71 1324.24L1237.36 1324.24C1237.94 1324.24 1238.44 1324.24 1238.87 1324.23 1239.3 1324.22 1239.68 1324.18 1240 1324.1 1240.32 1324.02 1240.61 1323.9 1240.88 1323.72 1241.15 1323.55 1241.41 1323.29 1241.67 1322.94 1241.93 1322.6 1242.21 1322.16 1242.5 1321.62 1242.79 1321.09 1243.13 1320.42 1243.53 1319.63L1245.89 1319.63 1244.43 1326.53 1226.2 1326.53 1225.58 1325.16C1227.05 1323.54 1228.58 1321.85 1230.16 1320.11 1231.75 1318.36 1233.31 1316.65 1234.84 1314.97 1236.38 1313.28 1237.86 1311.67 1239.28 1310.14 1240.71 1308.6 1241.99 1307.22 1243.14 1305.99 1243.08 1305.93 1243.03 1305.9 1243 1305.88L1237.1 1305.88C1236.43 1305.88 1235.86 1305.93 1235.38 1306.04 1234.91 1306.15 1234.47 1306.35 1234.08 1306.66 1233.68 1306.97 1233.29 1307.39 1232.91 1307.95 1232.52 1308.5 1232.08 1309.22 1231.57 1310.13L1229.23 1310.13Z" fill="#377F7E" fill-rule="evenodd"/><text fill="#000000" fill-opacity="0" font-family="Arial,Arial_MSFontService,sans-serif" font-size="22.9492" x="1225.58" y="1323.67">𝑧</text><path d="M1141 1143C1141 1106.55 1170.55 1077 1207 1077 1243.45 1077 1273 1106.55 1273 1143 1273 1179.45 1243.45 1209 1207 1209 1170.55 1209 1141 1179.45 1141 1143Z" stroke="#F7D115" stroke-width="5.72917" stroke-miterlimit="8" fill="#FBEA8E" fill-rule="evenodd"/><path d="M1184.16 1122.2 1195.31 1122.2 1198.87 1152.51 1217.09 1122.2 1226.94 1122.2 1226.59 1123.73C1225.8 1123.89 1225.23 1124.08 1224.89 1124.29 1224.55 1124.5 1224.23 1124.81 1223.95 1125.23 1223.67 1125.64 1223.39 1126.3 1223.11 1127.18 1222.83 1128.07 1222.47 1129.51 1222.03 1131.51L1216.69 1155.76C1216.42 1156.99 1216.24 1157.96 1216.16 1158.68 1216.07 1159.4 1216.03 1160.05 1216.03 1160.63 1216.03 1161.57 1216.27 1162.23 1216.73 1162.62 1217.2 1163 1217.99 1163.24 1219.09 1163.32L1218.75 1164.85 1206.25 1164.85 1206.59 1163.32C1207.39 1163.2 1207.98 1162.99 1208.37 1162.71 1208.77 1162.43 1209.1 1162.04 1209.37 1161.54 1209.65 1161.04 1209.9 1160.43 1210.12 1159.71 1210.35 1158.99 1210.7 1157.6 1211.16 1155.54L1215.31 1136.7C1215.9 1134.09 1216.56 1131.5 1217.31 1128.92L1216.87 1128.92C1216.23 1130.14 1214.77 1132.64 1212.5 1136.42L1198.28 1159.88 1194.87 1159.88 1192.28 1139.79C1191.91 1136.96 1191.49 1133.14 1191.03 1128.35L1190.41 1128.35C1189.7 1133.02 1188.91 1137.34 1188.03 1141.32L1184.84 1155.76C1184.41 1157.74 1184.19 1159.36 1184.19 1160.63 1184.19 1161.57 1184.42 1162.23 1184.89 1162.62 1185.36 1163 1186.15 1163.24 1187.25 1163.32L1186.91 1164.85 1175.97 1164.85 1176.31 1163.32C1177.1 1163.2 1177.7 1162.99 1178.09 1162.71 1178.49 1162.43 1178.82 1162.04 1179.09 1161.54 1179.36 1161.04 1179.61 1160.43 1179.84 1159.71 1180.07 1158.99 1180.42 1157.6 1180.87 1155.54L1186.19 1131.48C1186.4 1130.58 1186.56 1129.73 1186.69 1128.92 1186.81 1128.1 1186.87 1127.28 1186.87 1126.45 1186.87 1125.47 1186.63 1124.78 1186.14 1124.4 1185.65 1124.01 1184.87 1123.79 1183.81 1123.73Z" fill="#377F7E" fill-rule="evenodd"/><text fill="#000000" fill-opacity="0" font-family="Arial,Arial_MSFontService,sans-serif" font-size="42.6562" x="1175.97" y="1159.52">𝑀</text><path d="M1233.89 1154.51C1234.44 1154.51 1234.92 1154.56 1235.31 1154.68 1235.71 1154.79 1236.07 1154.97 1236.39 1155.22 1236.71 1155.46 1237 1155.78 1237.25 1156.17 1237.51 1156.56 1237.76 1157.03 1238.02 1157.58 1238.16 1157.92 1238.31 1158.4 1238.46 1159.03 1238.61 1159.66 1238.77 1160.38 1238.94 1161.21 1239.11 1162.03 1239.28 1162.94 1239.45 1163.94 1239.61 1164.93 1239.78 1165.97 1239.95 1167.06 1240.12 1168.15 1240.28 1169.26 1240.43 1170.4 1240.59 1171.54 1240.73 1172.66 1240.87 1173.76 1242.02 1172.26 1243.05 1170.74 1243.97 1169.21 1244.88 1167.67 1245.66 1166.21 1246.3 1164.85 1246.93 1163.48 1247.42 1162.23 1247.75 1161.1 1248.09 1159.98 1248.25 1159.08 1248.24 1158.41 1248.24 1157.74 1248.06 1157.25 1247.71 1156.96 1247.36 1156.67 1246.77 1156.5 1245.94 1156.46L1246.24 1154.99 1252.78 1154.99 1253.58 1156.32C1252.05 1160.1 1250.27 1163.74 1248.22 1167.26 1246.18 1170.77 1243.87 1174.17 1241.3 1177.48 1240.19 1178.81 1239.18 1179.96 1238.29 1180.92 1237.39 1181.89 1236.57 1182.72 1235.81 1183.41 1235.05 1184.11 1234.35 1184.68 1233.7 1185.12 1233.05 1185.56 1232.42 1185.92 1231.8 1186.19 1231.19 1186.46 1230.58 1186.65 1229.98 1186.76 1229.37 1186.88 1228.74 1186.95 1228.09 1186.98 1227.73 1186.98 1227.31 1186.94 1226.81 1186.87 1226.31 1186.79 1225.87 1186.69 1225.49 1186.57L1226.64 1181.54 1228.73 1181.54 1228.73 1181.68C1228.73 1182.72 1229.15 1183.24 1229.99 1183.24 1231.11 1183.24 1232.24 1182.81 1233.39 1181.94 1234.53 1181.08 1235.92 1179.7 1237.54 1177.8 1237.04 1174.89 1236.59 1172.38 1236.21 1170.26 1235.83 1168.14 1235.48 1166.34 1235.17 1164.85 1234.85 1163.35 1234.57 1162.14 1234.3 1161.21 1234.04 1160.27 1233.79 1159.55 1233.55 1159.03 1233.3 1158.51 1233.05 1158.15 1232.8 1157.96 1232.55 1157.77 1232.28 1157.67 1231.99 1157.67 1231.71 1157.67 1231.46 1157.71 1231.23 1157.78 1231 1157.85 1230.76 1157.99 1230.52 1158.2 1230.27 1158.42 1230.01 1158.72 1229.73 1159.11 1229.44 1159.5 1229.1 1160.01 1228.68 1160.63L1226.92 1159.49C1227.57 1158.52 1228.18 1157.72 1228.73 1157.08 1229.28 1156.43 1229.83 1155.93 1230.37 1155.55 1230.91 1155.18 1231.47 1154.91 1232.03 1154.75 1232.6 1154.59 1233.22 1154.51 1233.89 1154.51Z" fill="#377F7E" fill-rule="evenodd"/><text fill="#000000" fill-opacity="0" font-family="Arial,Arial_MSFontService,sans-serif" font-size="32.4731" x="1225.49" y="1182.92">𝑦</text><path d="M1141 1442C1141 1405.55 1170.55 1376 1207 1376 1243.45 1376 1273 1405.55 1273 1442 1273 1478.45 1243.45 1508 1207 1508 1170.55 1508 1141 1478.45 1141 1442Z" stroke="#F7D115" stroke-width="5.72917" stroke-miterlimit="8" fill="#FBEA8E" fill-rule="evenodd"/><path d="M1200.41 1422.65C1198.16 1422.65 1196.06 1423.45 1194.11 1425.05 1192.16 1426.66 1190.45 1428.95 1188.98 1431.93 1187.52 1434.91 1186.37 1438.18 1185.56 1441.74 1184.75 1445.3 1184.34 1448.45 1184.34 1451.18 1184.34 1457.62 1186.69 1460.83 1191.37 1460.83 1194.27 1460.83 1196.93 1459.49 1199.34 1456.79 1201.76 1454.09 1203.71 1450.36 1205.19 1445.58 1206.67 1440.81 1207.41 1436.36 1207.41 1432.21 1207.41 1429.11 1206.83 1426.74 1205.69 1425.1 1204.54 1423.46 1202.78 1422.65 1200.41 1422.65ZM1200.75 1419.9C1204.77 1419.9 1207.87 1421.06 1210.05 1423.4 1212.22 1425.73 1213.31 1429.11 1213.31 1433.52 1213.31 1436.44 1212.85 1439.7 1211.94 1443.3 1211.02 1446.91 1209.76 1450.09 1208.16 1452.85 1206.55 1455.61 1204.69 1457.83 1202.58 1459.52 1200.46 1461.21 1198.17 1462.38 1195.69 1463.02 1196.17 1464.54 1196.61 1465.8 1197.03 1466.79 1197.45 1467.78 1197.85 1468.58 1198.23 1469.19 1198.62 1469.81 1199 1470.27 1199.37 1470.57 1199.75 1470.87 1200.12 1471.07 1200.5 1471.18 1200.87 1471.28 1201.31 1471.33 1201.81 1471.33 1202.6 1471.33 1203.41 1471.11 1204.22 1470.65 1205.03 1470.19 1205.94 1469.4 1206.94 1468.27L1208.56 1470.02C1206.9 1471.83 1205.34 1473.12 1203.91 1473.87 1202.47 1474.62 1200.99 1474.99 1199.47 1474.99 1197.74 1474.99 1196.33 1474.61 1195.23 1473.83 1194.14 1473.06 1193.19 1471.83 1192.39 1470.15 1191.59 1468.46 1190.81 1466.25 1190.06 1463.52 1186.29 1463.31 1183.42 1462.06 1181.44 1459.77 1179.46 1457.48 1178.47 1454.25 1178.47 1450.08 1178.47 1446.96 1178.99 1443.43 1180.05 1439.49 1181.1 1435.55 1182.62 1432.08 1184.61 1429.07 1186.6 1426.06 1188.97 1423.78 1191.73 1422.22 1194.49 1420.67 1197.5 1419.9 1200.75 1419.9Z" fill="#377F7E" fill-rule="evenodd"/><text fill="#000000" fill-opacity="0" font-family="Arial,Arial_MSFontService,sans-serif" font-size="55.0938" x="1178.47" y="1468.1">𝑄</text><path d="M1225.94 1452.71C1226.78 1452.71 1227.47 1452.89 1228.01 1453.26 1228.54 1453.63 1228.99 1454.16 1229.34 1454.86 1229.69 1455.57 1229.98 1456.44 1230.21 1457.47 1230.44 1458.5 1230.68 1459.68 1230.94 1461.01L1231.24 1461.01C1232.16 1459.81 1232.96 1458.76 1233.63 1457.87 1234.3 1456.98 1234.9 1456.23 1235.43 1455.62 1235.96 1455.01 1236.43 1454.51 1236.85 1454.13 1237.27 1453.75 1237.68 1453.45 1238.08 1453.25 1238.48 1453.04 1238.89 1452.9 1239.31 1452.82 1239.73 1452.75 1240.2 1452.71 1240.72 1452.71 1241.49 1452.71 1242.18 1452.84 1242.81 1453.12L1241.66 1457.64 1239.76 1457.64C1239.71 1456.98 1239.47 1456.65 1239.02 1456.65 1238.85 1456.65 1238.67 1456.69 1238.47 1456.75 1238.27 1456.81 1238.04 1456.93 1237.76 1457.11 1237.48 1457.3 1237.17 1457.55 1236.81 1457.88 1236.45 1458.21 1236.02 1458.64 1235.53 1459.17 1235.04 1459.7 1234.49 1460.34 1233.86 1461.11 1233.23 1461.87 1232.51 1462.77 1231.7 1463.81 1232.11 1465.93 1232.47 1467.62 1232.77 1468.89 1233.07 1470.16 1233.35 1471.13 1233.63 1471.8 1233.9 1472.47 1234.18 1472.91 1234.46 1473.12 1234.73 1473.33 1235.04 1473.43 1235.4 1473.43 1235.66 1473.43 1235.9 1473.4 1236.12 1473.34 1236.34 1473.28 1236.57 1473.14 1236.81 1472.94 1237.05 1472.73 1237.31 1472.43 1237.6 1472.04 1237.89 1471.65 1238.23 1471.14 1238.63 1470.49L1240.35 1471.62C1239.68 1472.63 1239.08 1473.45 1238.56 1474.1 1238.04 1474.74 1237.54 1475.24 1237.05 1475.61 1236.56 1475.98 1236.05 1476.23 1235.53 1476.36 1235.01 1476.49 1234.42 1476.55 1233.74 1476.55 1233.16 1476.55 1232.64 1476.47 1232.18 1476.31 1231.72 1476.15 1231.33 1475.86 1230.99 1475.43 1230.76 1475.17 1230.55 1474.82 1230.35 1474.38 1230.15 1473.95 1229.97 1473.48 1229.8 1472.97 1229.63 1472.47 1229.48 1471.94 1229.34 1471.4 1229.2 1470.86 1229.09 1470.35 1228.99 1469.87 1228.9 1469.4 1228.83 1468.97 1228.78 1468.6 1228.72 1468.22 1228.69 1467.95 1228.67 1467.76L1228.42 1467.76C1227.5 1468.99 1226.7 1470.05 1226.02 1470.96 1225.34 1471.87 1224.73 1472.65 1224.17 1473.3 1223.62 1473.95 1223.13 1474.49 1222.68 1474.91 1222.24 1475.33 1221.8 1475.66 1221.37 1475.91 1220.95 1476.15 1220.51 1476.32 1220.06 1476.41 1219.6 1476.51 1219.1 1476.55 1218.55 1476.55 1217.76 1476.55 1217.08 1476.41 1216.51 1476.14L1217.57 1471.66 1219.52 1471.66C1219.56 1472.34 1219.81 1472.67 1220.27 1472.67 1220.44 1472.66 1220.61 1472.63 1220.77 1472.58 1220.93 1472.54 1221.11 1472.44 1221.33 1472.29 1221.54 1472.15 1221.81 1471.92 1222.14 1471.61 1222.47 1471.29 1222.89 1470.86 1223.39 1470.3 1223.9 1469.74 1224.52 1469.04 1225.25 1468.2 1225.99 1467.36 1226.87 1466.32 1227.89 1465.08 1227.62 1463.79 1227.38 1462.67 1227.17 1461.73 1226.96 1460.78 1226.77 1459.96 1226.6 1459.28 1226.42 1458.6 1226.25 1458.05 1226.08 1457.62 1225.91 1457.19 1225.74 1456.85 1225.56 1456.6 1225.39 1456.34 1225.2 1456.16 1224.99 1456.06 1224.78 1455.95 1224.54 1455.89 1224.27 1455.87 1224.01 1455.87 1223.77 1455.92 1223.54 1456 1223.32 1456.08 1223.09 1456.23 1222.85 1456.45 1222.62 1456.66 1222.36 1456.96 1222.07 1457.34 1221.79 1457.73 1221.47 1458.22 1221.1 1458.83L1219.33 1457.69C1219.96 1456.75 1220.53 1455.97 1221.03 1455.32 1221.54 1454.68 1222.03 1454.17 1222.52 1453.79 1223.01 1453.4 1223.53 1453.13 1224.07 1452.96 1224.61 1452.79 1225.24 1452.71 1225.94 1452.71Z" fill="#377F7E" fill-rule="evenodd"/><text fill="#000000" fill-opacity="0" font-family="Arial,Arial_MSFontService,sans-serif" font-size="23.8442" x="1216.51" y="1473.57">𝑥</text><path d="M1141 1741C1141 1704.55 1170.55 1675 1207 1675 1243.45 1675 1273 1704.55 1273 1741 1273 1777.45 1243.45 1807 1207 1807 1170.55 1807 1141 1777.45 1141 1741Z" stroke="#F7D115" stroke-width="5.72917" stroke-miterlimit="8" fill="#FBEA8E" fill-rule="evenodd"/><path d="M1200.41 1721.86C1198.16 1721.86 1196.06 1722.66 1194.11 1724.26 1192.16 1725.87 1190.45 1728.16 1188.98 1731.14 1187.52 1734.12 1186.37 1737.39 1185.56 1740.95 1184.75 1744.51 1184.34 1747.66 1184.34 1750.39 1184.34 1756.82 1186.69 1760.04 1191.37 1760.04 1194.27 1760.04 1196.93 1758.69 1199.34 1756 1201.76 1753.3 1203.71 1749.56 1205.19 1744.79 1206.67 1740.02 1207.41 1735.56 1207.41 1731.42 1207.41 1728.31 1206.83 1725.94 1205.69 1724.31 1204.54 1722.67 1202.78 1721.86 1200.41 1721.86ZM1200.75 1719.11C1204.77 1719.11 1207.87 1720.27 1210.05 1722.61 1212.22 1724.94 1213.31 1728.31 1213.31 1732.73 1213.31 1735.65 1212.85 1738.91 1211.94 1742.51 1211.02 1746.12 1209.76 1749.3 1208.16 1752.06 1206.55 1754.82 1204.69 1757.04 1202.58 1758.73 1200.46 1760.42 1198.17 1761.59 1195.69 1762.23 1196.17 1763.75 1196.61 1765.01 1197.03 1766 1197.45 1766.99 1197.85 1767.79 1198.23 1768.4 1198.62 1769.02 1199 1769.48 1199.37 1769.78 1199.75 1770.08 1200.12 1770.28 1200.5 1770.39 1200.87 1770.49 1201.31 1770.54 1201.81 1770.54 1202.6 1770.54 1203.41 1770.31 1204.22 1769.86 1205.03 1769.4 1205.94 1768.61 1206.94 1767.48L1208.56 1769.23C1206.9 1771.04 1205.34 1772.32 1203.91 1773.07 1202.47 1773.82 1200.99 1774.2 1199.47 1774.2 1197.74 1774.2 1196.33 1773.81 1195.23 1773.04 1194.14 1772.27 1193.19 1771.04 1192.39 1769.36 1191.59 1767.67 1190.81 1765.46 1190.06 1762.73 1186.29 1762.52 1183.42 1761.27 1181.44 1758.98 1179.46 1756.69 1178.47 1753.46 1178.47 1749.29 1178.47 1746.17 1178.99 1742.64 1180.05 1738.7 1181.1 1734.76 1182.62 1731.29 1184.61 1728.28 1186.6 1725.27 1188.97 1722.99 1191.73 1721.43 1194.49 1719.88 1197.5 1719.11 1200.75 1719.11Z" fill="#377F7E" fill-rule="evenodd"/><text fill="#000000" fill-opacity="0" font-family="Arial,Arial_MSFontService,sans-serif" font-size="55.0938" x="1178.47" y="1767.31">𝑄</text><path d="M1221.49 1752.4 1239.34 1752.4 1239.89 1753.78C1238.88 1754.89 1237.92 1755.96 1237.01 1756.97 1236.1 1757.98 1235.2 1758.97 1234.31 1759.95 1233.41 1760.93 1232.52 1761.9 1231.62 1762.87 1230.73 1763.85 1229.8 1764.86 1228.83 1765.9 1227.87 1766.95 1226.86 1768.05 1225.8 1769.21 1224.75 1770.36 1223.62 1771.61 1222.41 1772.94 1222.47 1773 1222.51 1773.04 1222.55 1773.05L1228.19 1773.05C1228.77 1773.05 1229.28 1773.05 1229.71 1773.04 1230.13 1773.03 1230.51 1772.99 1230.83 1772.92 1231.15 1772.84 1231.45 1772.71 1231.71 1772.54 1231.98 1772.36 1232.24 1772.1 1232.51 1771.76 1232.77 1771.41 1233.04 1770.97 1233.33 1770.44 1233.62 1769.9 1233.97 1769.24 1234.36 1768.44L1236.73 1768.44 1235.26 1775.35 1217.04 1775.35 1216.42 1773.97C1217.89 1772.35 1219.41 1770.67 1221 1768.92 1222.58 1767.18 1224.14 1765.46 1225.68 1763.78 1227.22 1762.1 1228.7 1760.49 1230.12 1758.95 1231.54 1757.41 1232.83 1756.03 1233.97 1754.81 1233.91 1754.75 1233.87 1754.71 1233.84 1754.69L1227.94 1754.69C1227.26 1754.69 1226.69 1754.75 1226.22 1754.85 1225.74 1754.96 1225.31 1755.17 1224.91 1755.47 1224.51 1755.78 1224.12 1756.21 1223.74 1756.76 1223.36 1757.31 1222.91 1758.04 1222.41 1758.94L1220.07 1758.94Z" fill="#377F7E" fill-rule="evenodd"/><text fill="#000000" fill-opacity="0" font-family="Arial,Arial_MSFontService,sans-serif" font-size="22.9492" x="1216.42" y="1772.48">𝑧</text><path d="M1141 1592C1141 1555.55 1170.55 1526 1207 1526 1243.45 1526 1273 1555.55 1273 1592 1273 1628.45 1243.45 1658 1207 1658 1170.55 1658 1141 1628.45 1141 1592Z" stroke="#F7D115" stroke-width="5.72917" stroke-miterlimit="8" fill="#FBEA8E" fill-rule="evenodd"/><path d="M1200.41 1573.26C1198.16 1573.26 1196.06 1574.06 1194.11 1575.67 1192.16 1577.27 1190.45 1579.56 1188.98 1582.54 1187.52 1585.52 1186.37 1588.79 1185.56 1592.35 1184.75 1595.92 1184.34 1599.06 1184.34 1601.79 1184.34 1608.23 1186.69 1611.45 1191.37 1611.45 1194.27 1611.45 1196.93 1610.1 1199.34 1607.4 1201.76 1604.7 1203.71 1600.97 1205.19 1596.2 1206.67 1591.43 1207.41 1586.97 1207.41 1582.82 1207.41 1579.72 1206.83 1577.35 1205.69 1575.71 1204.54 1574.08 1202.78 1573.26 1200.41 1573.26ZM1200.75 1570.51C1204.77 1570.51 1207.87 1571.68 1210.05 1574.01 1212.22 1576.34 1213.31 1579.72 1213.31 1584.13 1213.31 1587.05 1212.85 1590.31 1211.94 1593.92 1211.02 1597.52 1209.76 1600.7 1208.16 1603.46 1206.55 1606.22 1204.69 1608.45 1202.58 1610.13 1200.46 1611.82 1198.17 1612.99 1195.69 1613.63 1196.17 1615.16 1196.61 1616.41 1197.03 1617.4 1197.45 1618.39 1197.85 1619.19 1198.23 1619.81 1198.62 1620.42 1199 1620.88 1199.37 1621.18 1199.75 1621.48 1200.12 1621.69 1200.5 1621.79 1200.87 1621.89 1201.31 1621.95 1201.81 1621.95 1202.6 1621.95 1203.41 1621.72 1204.22 1621.26 1205.03 1620.8 1205.94 1620.01 1206.94 1618.88L1208.56 1620.63C1206.9 1622.45 1205.34 1623.73 1203.91 1624.48 1202.47 1625.23 1200.99 1625.6 1199.47 1625.6 1197.74 1625.6 1196.33 1625.22 1195.23 1624.45 1194.14 1623.68 1193.19 1622.45 1192.39 1620.76 1191.59 1619.07 1190.81 1616.86 1190.06 1614.13 1186.29 1613.93 1183.42 1612.68 1181.44 1610.38 1179.46 1608.09 1178.47 1604.86 1178.47 1600.7 1178.47 1597.57 1178.99 1594.04 1180.05 1590.1 1181.1 1586.17 1182.62 1582.69 1184.61 1579.68 1186.6 1576.67 1188.97 1574.39 1191.73 1572.84 1194.49 1571.29 1197.5 1570.51 1200.75 1570.51Z" fill="#377F7E" fill-rule="evenodd"/><text fill="#000000" fill-opacity="0" font-family="Arial,Arial_MSFontService,sans-serif" font-size="55.0938" x="1178.47" y="1618.72">𝑄</text><path d="M1224.73 1603.32C1225.28 1603.32 1225.75 1603.38 1226.15 1603.49 1226.55 1603.61 1226.91 1603.79 1227.23 1604.03 1227.55 1604.28 1227.83 1604.59 1228.09 1604.98 1228.34 1605.37 1228.6 1605.84 1228.86 1606.4 1228.99 1606.73 1229.14 1607.21 1229.29 1607.84 1229.45 1608.47 1229.61 1609.19 1229.77 1610.02 1229.94 1610.85 1230.11 1611.76 1230.28 1612.75 1230.45 1613.75 1230.62 1614.79 1230.78 1615.87 1230.95 1616.96 1231.11 1618.07 1231.27 1619.21 1231.42 1620.35 1231.56 1621.47 1231.7 1622.57 1232.85 1621.07 1233.88 1619.56 1234.8 1618.02 1235.72 1616.48 1236.49 1615.03 1237.13 1613.66 1237.76 1612.29 1238.25 1611.04 1238.59 1609.92 1238.92 1608.79 1239.08 1607.89 1239.07 1607.22 1239.07 1606.55 1238.89 1606.07 1238.54 1605.78 1238.19 1605.48 1237.6 1605.32 1236.77 1605.27L1237.07 1603.8 1243.61 1603.8 1244.42 1605.13C1242.89 1608.91 1241.1 1612.56 1239.06 1616.07 1237.01 1619.58 1234.71 1622.99 1232.14 1626.29 1231.02 1627.62 1230.02 1628.77 1229.12 1629.73 1228.22 1630.7 1227.4 1631.53 1226.64 1632.22 1225.88 1632.92 1225.18 1633.49 1224.53 1633.93 1223.88 1634.38 1223.25 1634.73 1222.64 1635 1222.02 1635.27 1221.42 1635.46 1220.81 1635.58 1220.21 1635.69 1219.58 1635.76 1218.92 1635.79 1218.57 1635.79 1218.14 1635.75 1217.65 1635.68 1217.15 1635.6 1216.71 1635.5 1216.33 1635.38L1217.47 1630.35 1219.56 1630.35 1219.56 1630.49C1219.56 1631.53 1219.98 1632.05 1220.82 1632.05 1221.94 1632.05 1223.07 1631.62 1224.22 1630.76 1225.37 1629.89 1226.75 1628.51 1228.37 1626.61 1227.87 1623.71 1227.43 1621.19 1227.04 1619.07 1226.66 1616.96 1226.31 1615.15 1226 1613.66 1225.69 1612.17 1225.4 1610.95 1225.14 1610.02 1224.88 1609.09 1224.63 1608.36 1224.38 1607.84 1224.14 1607.32 1223.89 1606.97 1223.64 1606.77 1223.38 1606.58 1223.11 1606.49 1222.82 1606.49 1222.55 1606.49 1222.29 1606.52 1222.06 1606.59 1221.83 1606.66 1221.6 1606.8 1221.35 1607.01 1221.11 1607.23 1220.84 1607.53 1220.56 1607.92 1220.28 1608.31 1219.93 1608.82 1219.52 1609.45L1217.75 1608.3C1218.41 1607.34 1219.01 1606.53 1219.56 1605.89 1220.11 1605.25 1220.66 1604.74 1221.2 1604.36 1221.75 1603.99 1222.3 1603.72 1222.87 1603.56 1223.43 1603.4 1224.05 1603.32 1224.73 1603.32Z" fill="#377F7E" fill-rule="evenodd"/><text fill="#000000" fill-opacity="0" font-family="Arial,Arial_MSFontService,sans-serif" font-size="32.4731" x="1216.33" y="1631.73">𝑦</text><path d="M1732 767C1732 730.549 1761.55 701 1798 701 1834.45 701 1864 730.549 1864 767 1864 803.451 1834.45 833 1798 833 1761.55 833 1732 803.451 1732 767Z" stroke="#DECD2A" stroke-width="5.72917" stroke-miterlimit="8" fill="#F0E89F" fill-rule="evenodd"/><path d="M1732 1067C1732 1030.55 1761.55 1001 1798 1001 1834.45 1001 1864 1030.55 1864 1067 1864 1103.45 1834.45 1133 1798 1133 1761.55 1133 1732 1103.45 1732 1067Z" stroke="#DECD2A" stroke-width="5.72917" stroke-miterlimit="8" fill="#F0E89F" fill-rule="evenodd"/><path d="M1732 917C1732 880.549 1761.55 851 1798 851 1834.45 851 1864 880.549 1864 917 1864 953.451 1834.45 983 1798 983 1761.55 983 1732 953.451 1732 917Z" stroke="#DECD2A" stroke-width="5.72917" stroke-miterlimit="8" fill="#F0E89F" fill-rule="evenodd"/><path d="M1732 1518C1732 1481.55 1761.55 1452 1798 1452 1834.45 1452 1864 1481.55 1864 1518 1864 1554.45 1834.45 1584 1798 1584 1761.55 1584 1732 1554.45 1732 1518Z" stroke="#DECD2A" stroke-width="5.72917" stroke-miterlimit="8" fill="#F0E89F" fill-rule="evenodd"/><path d="M1732 1818C1732 1781.55 1761.55 1752 1798 1752 1834.45 1752 1864 1781.55 1864 1818 1864 1854.45 1834.45 1884 1798 1884 1761.55 1884 1732 1854.45 1732 1818Z" stroke="#DECD2A" stroke-width="5.72917" stroke-miterlimit="8" fill="#F0E89F" fill-rule="evenodd"/><path d="M1732 1668C1732 1631.55 1761.55 1602 1798 1602 1834.45 1602 1864 1631.55 1864 1668 1864 1704.45 1834.45 1734 1798 1734 1761.55 1734 1732 1704.45 1732 1668Z" stroke="#DECD2A" stroke-width="5.72917" stroke-miterlimit="8" fill="#F0E89F" fill-rule="evenodd"/><path d="M1732 1216C1732 1179.55 1761.55 1150 1798 1150 1834.45 1150 1864 1179.55 1864 1216 1864 1252.45 1834.45 1282 1798 1282 1761.55 1282 1732 1252.45 1732 1216Z" stroke="#DECD2A" stroke-width="5.72917" stroke-miterlimit="8" fill="#F0E89F" fill-rule="evenodd"/><path d="M1782 1316.5C1782 1307.39 1789.39 1300 1798.5 1300 1807.61 1300 1815 1307.39 1815 1316.5 1815 1325.61 1807.61 1333 1798.5 1333 1789.39 1333 1782 1325.61 1782 1316.5Z" fill="#DECD2A" fill-rule="evenodd"/><path d="M1782 1367.5C1782 1358.39 1789.39 1351 1798.5 1351 1807.61 1351 1815 1358.39 1815 1367.5 1815 1376.61 1807.61 1384 1798.5 1384 1789.39 1384 1782 1376.61 1782 1367.5Z" fill="#DECD2A" fill-rule="evenodd"/><path d="M1782 1418.5C1782 1409.39 1789.39 1402 1798.5 1402 1807.61 1402 1815 1409.39 1815 1418.5 1815 1427.61 1807.61 1435 1798.5 1435 1789.39 1435 1782 1427.61 1782 1418.5Z" fill="#DECD2A" fill-rule="evenodd"/><path d="M3002 1367C3002 1330.55 3031.55 1301 3068 1301 3104.45 1301 3134 1330.55 3134 1367 3134 1403.45 3104.45 1433 3068 1433 3031.55 1433 3002 1403.45 3002 1367Z" stroke="#2F856E" stroke-width="5.72917" stroke-miterlimit="8" fill="#3AD1B4" fill-rule="evenodd"/><path d="M3048.97 1345.59 3077.15 1345.59 3075 1355.19 3072 1355.19C3071.91 1353.58 3071.78 1352.32 3071.61 1351.39 3071.43 1350.46 3071.18 1349.8 3070.86 1349.39 3070.53 1348.99 3070.14 1348.71 3069.68 1348.56 3069.23 1348.42 3068.54 1348.34 3067.62 1348.34L3058 1348.34 3054.28 1365.34 3060.12 1365.34C3061.04 1365.34 3061.8 1365.22 3062.4 1364.97 3063.01 1364.72 3063.57 1364.27 3064.09 1363.61 3064.61 1362.95 3065.26 1361.83 3066.03 1360.25L3068.87 1360.25 3065.84 1373.44 3063.09 1373.44C3063.09 1371.33 3063.02 1370.02 3062.89 1369.49 3062.75 1368.95 3062.49 1368.59 3062.11 1368.39 3061.72 1368.19 3060.96 1368.09 3059.81 1368.09L3053.68 1368.09 3051.22 1379.16C3050.78 1381.12 3050.56 1382.74 3050.56 1384.03 3050.56 1384.68 3050.66 1385.18 3050.87 1385.55 3051.08 1385.91 3051.39 1386.18 3051.81 1386.34 3052.23 1386.51 3052.95 1386.64 3053.97 1386.72L3053.62 1388.25 3040.78 1388.25 3041.12 1386.72C3041.91 1386.59 3042.51 1386.39 3042.9 1386.11 3043.3 1385.83 3043.63 1385.44 3043.9 1384.94 3044.17 1384.44 3044.42 1383.83 3044.65 1383.11 3044.88 1382.39 3045.23 1381 3045.68 1378.94L3051 1354.88C3051.46 1352.79 3051.68 1351.15 3051.68 1349.94 3051.68 1348.92 3051.45 1348.21 3050.97 1347.81 3050.49 1347.42 3049.71 1347.19 3048.62 1347.13Z" fill="#19695A" fill-rule="evenodd"/><text fill="#000000" fill-opacity="0" font-family="Arial,Arial_MSFontService,sans-serif" font-size="42.6562" x="3040.78" y="1382.92">𝐹</text><path d="M3075.61 1377.91C3076.45 1377.91 3077.14 1378.09 3077.68 1378.46 3078.21 1378.82 3078.65 1379.36 3079.01 1380.06 3079.36 1380.77 3079.65 1381.63 3079.88 1382.67 3080.11 1383.7 3080.35 1384.88 3080.61 1386.21L3080.91 1386.21C3081.83 1385 3082.62 1383.96 3083.3 1383.07 3083.97 1382.18 3084.57 1381.43 3085.1 1380.82 3085.63 1380.21 3086.1 1379.71 3086.52 1379.33 3086.94 1378.95 3087.35 1378.65 3087.75 1378.44 3088.15 1378.24 3088.56 1378.1 3088.98 1378.02 3089.4 1377.94 3089.87 1377.91 3090.39 1377.91 3091.15 1377.91 3091.85 1378.04 3092.48 1378.32L3091.33 1382.84 3089.43 1382.84C3089.38 1382.18 3089.13 1381.85 3088.69 1381.85 3088.52 1381.85 3088.34 1381.88 3088.14 1381.94 3087.94 1382.01 3087.7 1382.13 3087.43 1382.31 3087.15 1382.5 3086.84 1382.75 3086.48 1383.08 3086.12 1383.41 3085.69 1383.84 3085.2 1384.37 3084.71 1384.89 3084.15 1385.54 3083.53 1386.3 3082.9 1387.07 3082.18 1387.97 3081.37 1389.01 3081.78 1391.12 3082.14 1392.81 3082.44 1394.08 3082.74 1395.35 3083.02 1396.33 3083.3 1397 3083.57 1397.67 3083.85 1398.11 3084.12 1398.32 3084.4 1398.53 3084.71 1398.63 3085.06 1398.63 3085.32 1398.63 3085.57 1398.6 3085.79 1398.54 3086.01 1398.48 3086.24 1398.34 3086.48 1398.14 3086.71 1397.93 3086.98 1397.63 3087.27 1397.24 3087.56 1396.85 3087.9 1396.33 3088.3 1395.69L3090.02 1396.82C3089.35 1397.83 3088.75 1398.65 3088.23 1399.29 3087.71 1399.94 3087.21 1400.44 3086.72 1400.81 3086.23 1401.18 3085.72 1401.42 3085.2 1401.55 3084.68 1401.68 3084.09 1401.75 3083.41 1401.75 3082.83 1401.75 3082.31 1401.67 3081.85 1401.51 3081.39 1401.35 3081 1401.05 3080.66 1400.63 3080.43 1400.36 3080.21 1400.02 3080.02 1399.58 3079.82 1399.14 3079.63 1398.67 3079.47 1398.17 3079.3 1397.66 3079.14 1397.14 3079.01 1396.6 3078.87 1396.05 3078.75 1395.55 3078.66 1395.07 3078.57 1394.6 3078.5 1394.17 3078.44 1393.8 3078.39 1393.42 3078.36 1393.14 3078.34 1392.96L3078.09 1392.96C3077.17 1394.18 3076.37 1395.25 3075.69 1396.16 3075.01 1397.07 3074.39 1397.85 3073.84 1398.5 3073.29 1399.15 3072.79 1399.69 3072.35 1400.11 3071.91 1400.53 3071.47 1400.86 3071.04 1401.11 3070.61 1401.35 3070.17 1401.52 3069.72 1401.61 3069.27 1401.7 3068.77 1401.75 3068.22 1401.75 3067.42 1401.75 3066.74 1401.61 3066.18 1401.34L3067.23 1396.86 3069.18 1396.86C3069.23 1397.53 3069.48 1397.87 3069.94 1397.87 3070.11 1397.86 3070.27 1397.83 3070.43 1397.78 3070.6 1397.73 3070.78 1397.64 3071 1397.49 3071.21 1397.35 3071.48 1397.12 3071.81 1396.8 3072.14 1396.49 3072.56 1396.05 3073.06 1395.5 3073.57 1394.94 3074.19 1394.24 3074.92 1393.4 3075.66 1392.55 3076.54 1391.51 3077.56 1390.28 3077.28 1388.99 3077.04 1387.87 3076.84 1386.92 3076.63 1385.98 3076.44 1385.16 3076.26 1384.48 3076.09 1383.8 3075.92 1383.24 3075.75 1382.82 3075.58 1382.39 3075.41 1382.05 3075.23 1381.8 3075.05 1381.54 3074.86 1381.36 3074.66 1381.26 3074.45 1381.15 3074.21 1381.09 3073.93 1381.07 3073.67 1381.07 3073.43 1381.11 3073.21 1381.2 3072.99 1381.28 3072.76 1381.43 3072.52 1381.65 3072.29 1381.86 3072.03 1382.16 3071.74 1382.54 3071.46 1382.92 3071.13 1383.42 3070.77 1384.03L3069 1382.89C3069.63 1381.95 3070.19 1381.16 3070.7 1380.52 3071.2 1379.88 3071.7 1379.37 3072.19 1378.98 3072.68 1378.6 3073.2 1378.33 3073.74 1378.16 3074.28 1377.99 3074.91 1377.91 3075.61 1377.91Z" fill="#19695A" fill-rule="evenodd"/><text fill="#000000" fill-opacity="0" font-family="Arial,Arial_MSFontService,sans-serif" font-size="23.8442" x="3066.18" y="1398.77">𝑥</text><path d="M3002 1218C3002 1181.55 3031.55 1152 3068 1152 3104.45 1152 3134 1181.55 3134 1218 3134 1254.45 3104.45 1284 3068 1284 3031.55 1284 3002 1254.45 3002 1218Z" stroke="#2F856E" stroke-width="5.72917" stroke-miterlimit="8" fill="#3AD1B4" fill-rule="evenodd"/><path d="M3050.52 1195.99 3078.71 1195.99 3076.56 1205.58 3073.56 1205.58C3073.47 1203.98 3073.34 1202.71 3073.17 1201.79 3072.99 1200.86 3072.74 1200.19 3072.42 1199.79 3072.09 1199.38 3071.7 1199.11 3071.24 1198.96 3070.78 1198.81 3070.1 1198.74 3069.18 1198.74L3059.56 1198.74 3055.84 1215.74 3061.68 1215.74C3062.6 1215.74 3063.36 1215.62 3063.96 1215.37 3064.57 1215.12 3065.13 1214.66 3065.65 1214.01 3066.17 1213.35 3066.82 1212.23 3067.59 1210.65L3070.43 1210.65 3067.4 1223.83 3064.65 1223.83C3064.65 1221.73 3064.58 1220.41 3064.45 1219.88 3064.31 1219.35 3064.05 1218.99 3063.67 1218.79 3063.28 1218.59 3062.51 1218.49 3061.37 1218.49L3055.24 1218.49 3052.77 1229.55C3052.34 1231.51 3052.12 1233.14 3052.12 1234.43 3052.12 1235.07 3052.22 1235.58 3052.43 1235.94 3052.64 1236.31 3052.95 1236.57 3053.37 1236.74 3053.78 1236.91 3054.5 1237.03 3055.52 1237.12L3055.18 1238.65 3042.34 1238.65 3042.68 1237.12C3043.47 1236.99 3044.07 1236.79 3044.46 1236.51 3044.86 1236.22 3045.19 1235.83 3045.46 1235.33 3045.73 1234.83 3045.98 1234.22 3046.21 1233.51 3046.44 1232.79 3046.78 1231.4 3047.24 1229.33L3052.56 1205.27C3053.01 1203.19 3053.24 1201.54 3053.24 1200.33 3053.24 1199.31 3053 1198.61 3052.52 1198.21 3052.05 1197.81 3051.26 1197.58 3050.18 1197.52Z" fill="#19695A" fill-rule="evenodd"/><text fill="#000000" fill-opacity="0" font-family="Arial,Arial_MSFontService,sans-serif" font-size="42.6562" x="3042.34" y="1233.31">𝐹</text><path d="M3072.72 1228.78 3090.57 1228.78 3091.12 1230.16C3090.11 1231.28 3089.15 1232.34 3088.24 1233.35 3087.33 1234.36 3086.43 1235.35 3085.53 1236.33 3084.64 1237.31 3083.74 1238.29 3082.85 1239.26 3081.95 1240.23 3081.02 1241.24 3080.06 1242.29 3079.1 1243.34 3078.09 1244.44 3077.03 1245.59 3075.97 1246.75 3074.84 1247.99 3073.63 1249.32 3073.7 1249.38 3073.74 1249.42 3073.77 1249.44L3079.42 1249.44C3080 1249.44 3080.5 1249.43 3080.93 1249.43 3081.36 1249.42 3081.73 1249.38 3082.06 1249.3 3082.38 1249.22 3082.67 1249.1 3082.94 1248.92 3083.21 1248.75 3083.47 1248.48 3083.73 1248.14 3083.99 1247.8 3084.27 1247.36 3084.56 1246.82 3084.85 1246.29 3085.19 1245.62 3085.59 1244.82L3087.95 1244.82 3086.49 1251.73 3068.26 1251.73 3067.64 1250.36C3069.11 1248.73 3070.64 1247.05 3072.22 1245.31 3073.81 1243.56 3075.37 1241.85 3076.9 1240.17 3078.44 1238.48 3079.92 1236.87 3081.34 1235.34 3082.77 1233.8 3084.05 1232.42 3085.2 1231.19 3085.14 1231.13 3085.09 1231.09 3085.06 1231.08L3079.16 1231.08C3078.49 1231.08 3077.92 1231.13 3077.44 1231.24 3076.97 1231.35 3076.53 1231.55 3076.14 1231.86 3075.74 1232.16 3075.35 1232.59 3074.96 1233.14 3074.58 1233.69 3074.14 1234.42 3073.63 1235.32L3071.29 1235.32Z" fill="#19695A" fill-rule="evenodd"/><text fill="#000000" fill-opacity="0" font-family="Arial,Arial_MSFontService,sans-serif" font-size="22.9492" x="3067.64" y="1248.86">𝑧</text><path d="M0 0 459.182 76.4273" stroke="#377F7E" stroke-width="3.4375" stroke-linejoin="bevel" stroke-miterlimit="10" stroke-opacity="0.580392" fill="none" fill-rule="evenodd" transform="matrix(1 0 0 -1 1273.5 843.927)"/><path d="M1273.5 844.5 1732.68 917.793" stroke="#377F7E" stroke-width="3.4375" stroke-linejoin="bevel" stroke-miterlimit="10" stroke-opacity="0.580392" fill="none" fill-rule="evenodd"/><path d="M1273.5 844.5 1732.68 1067.51" stroke="#377F7E" stroke-width="3.4375" stroke-linejoin="bevel" stroke-miterlimit="10" stroke-opacity="0.580392" fill="none" fill-rule="evenodd"/><path d="M1273.5 844.5 1732.68 1217.23" stroke="#377F7E" stroke-width="3.4375" stroke-linejoin="bevel" stroke-miterlimit="10" stroke-opacity="0.580392" fill="none" fill-rule="evenodd"/><path d="M1273.5 844.5 1732.68 1519.11" stroke="#377F7E" stroke-width="3.4375" stroke-linejoin="bevel" stroke-miterlimit="10" stroke-opacity="0.580392" fill="none" fill-rule="evenodd"/><path d="M1273.5 844.5 1732.68 1668.83" stroke="#377F7E" stroke-width="3.4375" stroke-linejoin="bevel" stroke-miterlimit="10" stroke-opacity="0.580392" fill="none" fill-rule="evenodd"/><path d="M1273.5 844.5 1732.68 1818.55" stroke="#377F7E" stroke-width="3.4375" stroke-linejoin="bevel" stroke-miterlimit="10" stroke-opacity="0.580392" fill="none" fill-rule="evenodd"/><path d="M0 0 459.182 226.032" stroke="#377F7E" stroke-width="3.4375" stroke-linejoin="bevel" stroke-miterlimit="10" stroke-opacity="0.580392" fill="none" fill-rule="evenodd" transform="matrix(1 0 0 -1 1273.5 993.532)"/><path d="M0 0 459.182 76.3114" stroke="#377F7E" stroke-width="3.4375" stroke-linejoin="bevel" stroke-miterlimit="10" stroke-opacity="0.580392" fill="none" fill-rule="evenodd" transform="matrix(1 0 0 -1 1273.5 993.811)"/><path d="M1273.5 993.5 1732.68 1066.91" stroke="#377F7E" stroke-width="3.4375" stroke-linejoin="bevel" stroke-miterlimit="10" stroke-opacity="0.580392" fill="none" fill-rule="evenodd"/><path d="M1273.5 993.5 1732.68 1216.63" stroke="#377F7E" stroke-width="3.4375" stroke-linejoin="bevel" stroke-miterlimit="10" stroke-opacity="0.580392" fill="none" fill-rule="evenodd"/><path d="M1273.5 993.5 1732.68 1518.51" stroke="#377F7E" stroke-width="3.4375" stroke-linejoin="bevel" stroke-miterlimit="10" stroke-opacity="0.580392" fill="none" fill-rule="evenodd"/><path d="M1273.5 993.5 1732.68 1668.23" stroke="#377F7E" stroke-width="3.4375" stroke-linejoin="bevel" stroke-miterlimit="10" stroke-opacity="0.580392" fill="none" fill-rule="evenodd"/><path d="M1273.5 993.5 1732.68 1817.95" stroke="#377F7E" stroke-width="3.4375" stroke-linejoin="bevel" stroke-miterlimit="10" stroke-opacity="0.580392" fill="none" fill-rule="evenodd"/><path d="M0 0 459.182 378.702" stroke="#377F7E" stroke-width="3.4375" stroke-linejoin="bevel" stroke-miterlimit="10" stroke-opacity="0.580392" fill="none" fill-rule="evenodd" transform="matrix(1 0 0 -1 1273.5 1146.2)"/><path d="M0 0 459.182 228.982" stroke="#377F7E" stroke-width="3.4375" stroke-linejoin="bevel" stroke-miterlimit="10" stroke-opacity="0.580392" fill="none" fill-rule="evenodd" transform="matrix(1 0 0 -1 1273.5 1146.48)"/><path d="M0 0 459.182 76.1952" stroke="#377F7E" stroke-width="3.4375" stroke-linejoin="bevel" stroke-miterlimit="10" stroke-opacity="0.580392" fill="none" fill-rule="evenodd" transform="matrix(1 0 0 -1 1273.5 1143.7)"/><path d="M1273.5 1146.5 1732.68 1216.96" stroke="#377F7E" stroke-width="3.4375" stroke-linejoin="bevel" stroke-miterlimit="10" stroke-opacity="0.580392" fill="none" fill-rule="evenodd"/><path d="M1273.5 1146.5 1732.68 1518.84" stroke="#377F7E" stroke-width="3.4375" stroke-linejoin="bevel" stroke-miterlimit="10" stroke-opacity="0.580392" fill="none" fill-rule="evenodd"/><path d="M1273.5 1146.5 1732.68 1668.56" stroke="#377F7E" stroke-width="3.4375" stroke-linejoin="bevel" stroke-miterlimit="10" stroke-opacity="0.580392" fill="none" fill-rule="evenodd"/><path d="M1273.5 1146.5 1732.68 1818.28" stroke="#377F7E" stroke-width="3.4375" stroke-linejoin="bevel" stroke-miterlimit="10" stroke-opacity="0.580392" fill="none" fill-rule="evenodd"/><path d="M0 0 459.182 525.24" stroke="#377F7E" stroke-width="3.4375" stroke-linejoin="bevel" stroke-miterlimit="10" stroke-opacity="0.580392" fill="none" fill-rule="evenodd" transform="matrix(1 0 0 -1 1273.5 1292.74)"/><path d="M0 0 459.182 375.52" stroke="#377F7E" stroke-width="3.4375" stroke-linejoin="bevel" stroke-miterlimit="10" stroke-opacity="0.580392" fill="none" fill-rule="evenodd" transform="matrix(1 0 0 -1 1273.5 1293.02)"/><path d="M0 0 459.182 225.8" stroke="#377F7E" stroke-width="3.4375" stroke-linejoin="bevel" stroke-miterlimit="10" stroke-opacity="0.580392" fill="none" fill-rule="evenodd" transform="matrix(1 0 0 -1 1273.5 1293.3)"/><path d="M0 0 459.182 76.0797" stroke="#377F7E" stroke-width="3.4375" stroke-linejoin="bevel" stroke-miterlimit="10" stroke-opacity="0.580392" fill="none" fill-rule="evenodd" transform="matrix(1 0 0 -1 1273.5 1292.58)"/><path d="M1273.5 1292.5 1732.68 1518.3" stroke="#377F7E" stroke-width="3.4375" stroke-linejoin="bevel" stroke-miterlimit="10" stroke-opacity="0.580392" fill="none" fill-rule="evenodd"/><path d="M1273.5 1292.5 1732.68 1668.02" stroke="#377F7E" stroke-width="3.4375" stroke-linejoin="bevel" stroke-miterlimit="10" stroke-opacity="0.580392" fill="none" fill-rule="evenodd"/><path d="M1273.5 1292.5 1732.68 1817.74" stroke="#377F7E" stroke-width="3.4375" stroke-linejoin="bevel" stroke-miterlimit="10" stroke-opacity="0.580392" fill="none" fill-rule="evenodd"/><path d="M0 0 459.182 674.845" stroke="#377F7E" stroke-width="3.4375" stroke-linejoin="bevel" stroke-miterlimit="10" stroke-opacity="0.580392" fill="none" fill-rule="evenodd" transform="matrix(1 0 0 -1 1273.5 1442.34)"/><path d="M0 0 459.182 525.124" stroke="#377F7E" stroke-width="3.4375" stroke-linejoin="bevel" stroke-miterlimit="10" stroke-opacity="0.580392" fill="none" fill-rule="evenodd" transform="matrix(1 0 0 -1 1273.5 1442.62)"/><path d="M0 0 459.182 375.404" stroke="#377F7E" stroke-width="3.4375" stroke-linejoin="bevel" stroke-miterlimit="10" stroke-opacity="0.580392" fill="none" fill-rule="evenodd" transform="matrix(1 0 0 -1 1273.5 1442.9)"/><path d="M0 0 459.182 225.684" stroke="#377F7E" stroke-width="3.4375" stroke-linejoin="bevel" stroke-miterlimit="10" stroke-opacity="0.580392" fill="none" fill-rule="evenodd" transform="matrix(1 0 0 -1 1273.5 1442.18)"/><path d="M1273.5 1442.5 1732.68 1518.7" stroke="#377F7E" stroke-width="3.4375" stroke-linejoin="bevel" stroke-miterlimit="10" stroke-opacity="0.580392" fill="none" fill-rule="evenodd"/><path d="M1273.5 1442.5 1732.68 1668.42" stroke="#377F7E" stroke-width="3.4375" stroke-linejoin="bevel" stroke-miterlimit="10" stroke-opacity="0.580392" fill="none" fill-rule="evenodd"/><path d="M1273.5 1442.5 1732.68 1818.14" stroke="#377F7E" stroke-width="3.4375" stroke-linejoin="bevel" stroke-miterlimit="10" stroke-opacity="0.580392" fill="none" fill-rule="evenodd"/><path d="M0 0 459.182 824.449" stroke="#377F7E" stroke-width="3.4375" stroke-linejoin="bevel" stroke-miterlimit="10" stroke-opacity="0.580392" fill="none" fill-rule="evenodd" transform="matrix(1 0 0 -1 1273.5 1591.95)"/><path d="M0 0 459.182 677.795" stroke="#377F7E" stroke-width="3.4375" stroke-linejoin="bevel" stroke-miterlimit="10" stroke-opacity="0.580392" fill="none" fill-rule="evenodd" transform="matrix(1 0 0 -1 1273.5 1595.29)"/><path d="M0 0 459.182 528.075" stroke="#377F7E" stroke-width="3.4375" stroke-linejoin="bevel" stroke-miterlimit="10" stroke-opacity="0.580392" fill="none" fill-rule="evenodd" transform="matrix(1 0 0 -1 1273.5 1595.57)"/><path d="M0 0 459.182 378.355" stroke="#377F7E" stroke-width="3.4375" stroke-linejoin="bevel" stroke-miterlimit="10" stroke-opacity="0.580392" fill="none" fill-rule="evenodd" transform="matrix(1 0 0 -1 1273.5 1594.85)"/><path d="M0 0 459.182 76.4738" stroke="#377F7E" stroke-width="3.4375" stroke-linejoin="bevel" stroke-miterlimit="10" stroke-opacity="0.580392" fill="none" fill-rule="evenodd" transform="matrix(1 0 0 -1 1273.5 1594.97)"/><path d="M1273.5 1595.5 1732.68 1668.75" stroke="#377F7E" stroke-width="3.4375" stroke-linejoin="bevel" stroke-miterlimit="10" stroke-opacity="0.580392" fill="none" fill-rule="evenodd"/><path d="M1273.5 1595.5 1732.68 1818.47" stroke="#377F7E" stroke-width="3.4375" stroke-linejoin="bevel" stroke-miterlimit="10" stroke-opacity="0.580392" fill="none" fill-rule="evenodd"/><path d="M0 0 459.182 974.054" stroke="#377F7E" stroke-width="3.4375" stroke-linejoin="bevel" stroke-miterlimit="10" stroke-opacity="0.580392" fill="none" fill-rule="evenodd" transform="matrix(1 0 0 -1 1273.5 1741.55)"/><path d="M0 0 459.182 824.334" stroke="#377F7E" stroke-width="3.4375" stroke-linejoin="bevel" stroke-miterlimit="10" stroke-opacity="0.580392" fill="none" fill-rule="evenodd" transform="matrix(1 0 0 -1 1273.5 1741.83)"/><path d="M0 0 459.182 674.614" stroke="#377F7E" stroke-width="3.4375" stroke-linejoin="bevel" stroke-miterlimit="10" stroke-opacity="0.580392" fill="none" fill-rule="evenodd" transform="matrix(1 0 0 -1 1273.5 1742.11)"/><path d="M0 0 459.182 524.893" stroke="#377F7E" stroke-width="3.4375" stroke-linejoin="bevel" stroke-miterlimit="10" stroke-opacity="0.580392" fill="none" fill-rule="evenodd" transform="matrix(1 0 0 -1 1273.5 1741.39)"/><path d="M0 0 459.182 223.013" stroke="#377F7E" stroke-width="3.4375" stroke-linejoin="bevel" stroke-miterlimit="10" stroke-opacity="0.580392" fill="none" fill-rule="evenodd" transform="matrix(1 0 0 -1 1273.5 1741.51)"/><path d="M0 0 459.182 73.2925" stroke="#377F7E" stroke-width="3.4375" stroke-linejoin="bevel" stroke-miterlimit="10" stroke-opacity="0.580392" fill="none" fill-rule="evenodd" transform="matrix(1 0 0 -1 1273.5 1741.79)"/><path d="M1273.5 1741.5 1732.68 1817.93" stroke="#377F7E" stroke-width="3.4375" stroke-linejoin="bevel" stroke-miterlimit="10" stroke-opacity="0.580392" fill="none" fill-rule="evenodd"/><text fill="#377F7E" font-family="Cambria Math,Cambria Math_MSFontService,sans-serif" font-weight="400" font-size="64" transform="matrix(1 0 0 1 1706.48 1969)">n = 24</text><text fill="#377F7E" font-family="Cambria Math,Cambria Math_MSFontService,sans-serif" font-weight="400" font-size="64" transform="matrix(1 0 0 1 2082.13 1973)">h</text><text fill="#377F7E" font-family="Cambria Math,Cambria Math_MSFontService,sans-serif" font-weight="400" font-size="64" transform="matrix(1 0 0 1 2131.98 1973)">= </text><text fill="#377F7E" font-family="Cambria Math,Cambria Math_MSFontService,sans-serif" font-weight="400" font-size="64" transform="matrix(1 0 0 1 2194.43 1973)">16</text><path d="M2045.5 744.335C2045.5 720.678 2064.68 701.5 2088.33 701.5L2259.67 701.5C2283.32 701.5 2302.5 720.678 2302.5 744.335L2302.5 1841.67C2302.5 1865.32 2283.32 1884.5 2259.67 1884.5L2088.33 1884.5C2064.68 1884.5 2045.5 1865.32 2045.5 1841.67Z" stroke="#8CCA5E" stroke-width="9.16667" stroke-miterlimit="8" fill="#C2E3AA" fill-rule="evenodd"/><path d="M1911.5 1215.75 1960 1215.75 1960 1150.5 2008.5 1281 1960 1411.5 1960 1346.25 1911.5 1346.25Z" stroke="#98BB37" stroke-width="6.875" stroke-miterlimit="8" fill="#D5E5A6" fill-rule="evenodd"/><path d="M2362.5 1215.75 2411 1215.75 2411 1150.5 2459.5 1281 2411 1411.5 2411 1346.25 2362.5 1346.25Z" stroke="#49BF5F" stroke-width="6.875" stroke-miterlimit="8" fill="#A4DFAF" fill-rule="evenodd"/><path d="M2837.5 1215.75 2886 1215.75 2886 1150.5 2934.5 1281 2886 1411.5 2886 1346.25 2837.5 1346.25Z" stroke="#258F6E" stroke-width="6.875" stroke-miterlimit="8" fill="#62D6B3" fill-rule="evenodd"/><text fill="#377F7E" font-family="Cambria Math,Cambria Math_MSFontService,sans-serif" font-weight="400" font-size="64" transform="matrix(1 0 0 1 2565.9 1976)">h</text><text fill="#377F7E" font-family="Cambria Math,Cambria Math_MSFontService,sans-serif" font-weight="400" font-size="64" transform="matrix(1 0 0 1 2615.75 1976)">= </text><text fill="#377F7E" font-family="Cambria Math,Cambria Math_MSFontService,sans-serif" font-weight="400" font-size="64" transform="matrix(1 0 0 1 2678.19 1976)">8</text><text fill="#19695A" font-family="Calibri,Calibri_MSFontService,sans-serif" font-weight="400" font-size="83" transform="matrix(1 0 0 1 2081.11 1308)">LSTM</text><path d="M2511.5 744.335C2511.5 720.678 2530.68 701.5 2554.33 701.5L2725.67 701.5C2749.32 701.5 2768.5 720.678 2768.5 744.335L2768.5 1841.67C2768.5 1865.32 2749.32 1884.5 2725.67 1884.5L2554.33 1884.5C2530.68 1884.5 2511.5 1865.32 2511.5 1841.67Z" stroke="#31A169" stroke-width="9.16667" stroke-miterlimit="8" fill="#87DBB1" fill-rule="evenodd"/><text fill="#19695A" font-family="Calibri,Calibri_MSFontService,sans-serif" font-weight="400" font-size="83" transform="matrix(1 0 0 1 2547.11 1308)">LSTM</text></g></svg>